<svg xmlns="http://www.w3.org/2000/svg" version="1.1" viewBox="0 0 948 852" width="237" height="213">
<path transform="translate(0)" d="m0 0h948v852h-948z" fill="#FDFDFD"/>
<path transform="translate(508,87)" d="m0 0h28l2 4 3 43 1 6 26 2h3 9l1 7 2-7h9l1 4 2-4h5l1 1 2 80v33l-4 1h-5l-3-3-9-1-2-3 1-1-2-1-1-5h4l-1-3-9-3v-4h-6l-5-2 1-6h-4v4h-2l-1 3h-4v-4l-4 3-3 1 4 1v2l-4 2-2 2-8 1v-3l-4 1 4 4v1l-7-1-14-3 2 2h3l1 2 3 1 17 5v2l-16-2h-18l9 2 20 4 3 3-17-1h-20l11 1 17 3v2h6l1 3-9-1-7-1h-12l23 5h8l2 2-5 2 1 3h-2v4l6-3 3-2 4 2-4 1-1 4h-2v2l6-2v3 2h2v2h2v-4-3h2v2l4 1 1 3-1 2h2l1-4h1l1 7 1-4v-2l4 1-2-4 7 1 1 3h3l-3-8 2-2 2-1v-3h2l1-5 2-3 5 1 6-1v-2h-10l3-3 9-2h9l1 17 1 50h-2l-4-6v-3l-2 1 7 10 1 3v13l-1-2-2-1-2-5-7-14-7-12h-1l3 7 14 27 3 6 2 26v27l42-1-3 5-14 15-12 13-11 11-7 8-8 8-7 8-6 7-12 12h-1l-1-53-27 1-1 27h12v19l-1 1h-15-2-140l-8-7-12-11-16-15-6-5v-2l-4-2-4-5 52-1 1-33h47v-37l5-2-5-2v-14l1-2 7-1v58h21l1 4 2-4 2-1 1-87-28 1 1 7-2 4-5 1-1-1v-23l4-1v-2l-4-1v-8l4-2v-2h-4v-7l16 1 20 1 3 1v2l9 1-10-4-4-1-1-5 3-1h3l-5-4-1-3 1-5-1-5h16l-1-3-6 1-8-1-1-4 1-3-1-5 4-1 21 5-1-2-15-2-8-4-1-10h-21l-3 1-1 9v6h-7v-15h-27v54l-2 1 2 2v41l-2 2 2 1v48l-55 1-1 33h-43l-2-1v-3l36-3v-130-2-128l16-1h16l3 1v-2l27-1-1-10v-14h2l7 8 4 3-10-11-3-3v-27l1-2h50l2 3-1-3h19l4 7-2-7h18l2 5v-5z" fill="#AD6851"/>
<path transform="translate(323,152)" d="m0 0 2 1 1 80v70l1 79-1 1-14 1h-26l-6-5v-2l-4-2v-2l-4-2-14-14 1-4 8-7 24-22 7-6 2-11v-3l1-15-5 3-14 12-10 8-14 12-10 8-8 6-5-3-9-9-8-7-10-10-8-7-12-12 2-5 6-7 7-6 7-8 7-7h2l2-4h2l2-4h2l1-3 8-7 15-15 7-8 15-15h2v-2l8-7 16-16 7-8 13-12z" fill="#AB654E"/>
<path transform="translate(630,148)" d="m0 0 8 6 15 15 8 7 16 16 8 7 12 12 5 4 16 16 8 7 11 11 3 2v2l4 2 7 6v2l4 2 13 13-1 5-12 13-38 38-1 2-4-1-14-12-11-9-8-7-11-9-3-2v-2h-2v-2l-3-1v-2l-10-3-19-7v-4l2-2-2-2v-4h4l-1-2-3-2v-12h2v-2h-2l-1-18v-16l1-3 7-4-8 1v-8-2z" fill="#AC6750"/>
<path transform="translate(359,149)" d="m0 0 4 1 14 13 11 9 9 9 5 3 12-1 15 1-1-8-3-4 4 1v-7l1-2 5-1h20l-2-4v-3l11 10 1 5v12l11 2-3-6-4-4v-2l6 2v-25l4-1 20 20 8 7 5 5 9 3h8l3 1v-5l3 2v2l17-1 11 1v-20l8-1h7l1-2 1 2h17l1 3v39l-4 3h-15v2h-2v-2h-10l-1 2-1-1-22-1-1 4-2-3h-155l-25-1-1-1-1-27-1-3 1-1z" fill="#FEFEFE"/>
<path transform="translate(453,285)" d="m0 0h19l9 1 12 9 11 8 7 8v65l-1 4 17-1 4-3h6l-8-13-4-6v-10l5-15 4-9h2l1 3h2l1-6 4 2v2h4l1-6 2 1 2 4 3 23 2 33 10 1-1-16-1-6-1-7v-16l2 4 1 12v11l9-1 1-2 7 1h11l-1-9 2-3 2 5 1 4 1 3 3 2v40l-1 5-2-3-14-1v5l-2-4h-16l-27-1-1 4-1-3h-12l-2 5h-1v-6l-14 1-2 2v-3h-16l-1 6-1-4 1-2h-11l-2-1 1-90-12 1-18-1v-9-3-8l-1-4z" fill="#FDFDFD"/>
<path transform="translate(407,496)" d="m0 0h154l-2 4h-2l-2 4-14 15-8 8-1 2h-2l-2 4-12 13-7 8-19 19-4-1-7-7-8-7-12-12-8-7-16-15-12-11-7-6-9-9z" fill="#AC664F"/>
<path transform="translate(549,640)" d="m0 0h5l1 1 4 33v9h14v-14l-6-24 4-3 5 1 3 29v14l-4 8-4-1-1-1-13-1-2 7h-3v-8l-8 1h-11l-2-4-4 4h-10l-1 1h-7l-4-1h-76l-2-4-4 4h-9l-7 12-9 8-9 3h-7l-6-4-6-10-3-6-6 10-8 7-8 3h-8l-6-4-3-3-2-4-6 1-3-5 2-2h6v-7l-41 1v-3l-2-1-1 3-16 2-2 4-4 1 4-10-6-30-2-6v-6l5-2 3 2v14l4 21 1 3h14l1-5h4l2 5h31l-5-6-6-2-4 2-4-1v-6l6-4 7 1 5 4 7 9 6 1 7 1 1 1v9l-10-1-4-1 4 13 6 5 2 1h8l8-5 4-5 4-8-6-1-5-4-1-4 3-9 4-4 5 1 4 5 3 8 11 1v-19l-4-14-1-6 4-3 5 1 2 24v19l-2 7-4 1-6-3-6-1 10 16 6 3 9-1 6-3 4-5 3-6v-3l-7-2-3-4v-7l5-8 5-1 5 4 3 10 11-1 4-5h2l2 6h77l-1-6-63-1-5-5 1-7 4-6 7-6 5-2h10l3 4-1 4-5 1-1-3-6 1-8 6-2 4v3l64 1 4 5 1 7h13l1-4 3-2 2 3v3h18l-1-2-3-23-3-10v-6z" fill="#130C0C"/>
<path transform="translate(475,2)" d="m0 0 4 1 12 11 18 18 8 7 22 22v1h-64l-1-2-2 3h-20l-4-3v3h-34l2-4 8-7 29-29h2l2-4h2l2-4z" fill="#AC664F"/>
<path transform="translate(631,282)" d="m0 0 9 2 15 6 1 7-3 2 3 2v10 2l3 5 21 21 11 9 6 5-3 5-4 4h-2l-2 4-8 8-4-1-2-1 1 3h-16l-6-4 1 4h-19l-1-7-1-32 1-4-1-11v-11l1-2-1-2v-6l2-1-2-4v-4l7 1 8 3-7-3v-2l-7-2-1-1z" fill="#AB664F"/>
<path transform="translate(392,257)" d="m0 0 3 1 1 22 1 57 4 1-5 1v36h-28l-1-23v-58l1-35 1-1z" fill="#FEFEFE"/>
<path transform="translate(455,315)" d="m0 0h23v87l-3 2-2 4h-1v-5h-21l-1-41 1-17-4-1 2-1 1-10-1-4-3-1 3-2 1-8v-2z" fill="#FEFEFE"/>
<path transform="translate(429,440)" d="m0 0h2l6 7 3 2v2l4 2 7 7 2 1h39l2 1-1-8 3-13 3 1 5 6 11 9 9 9 10 8-1 3-19-1-3-3h-5l-3 3-19 1-55-1-1-1z" fill="#FEFEFE"/>
<path transform="translate(649,640)" d="m0 0h5l1 1 4 36v6l12-1 4-3h10l-2-4-5-1-7 6-5-1 6-7 6-5 5 1 9 8 1 4-6 2v1l18 1v-12l-3-16-3-10 1-3 7-1 1 1 2 21 1 8v12l-3 9-5 1-1-2-20-1-3-4h-2v3l-2 1h-19v6l-4 1v-8l-18 1-1-2 1-2h-4l-1 3-14 2-5 5h-2l1-4 2-5-4-24-4-15 2-5 5-1 2 2v16l4 23 14-2 2-5 3 1 1 5h17l-3-24-3-10v-8z" fill="#130C0C"/>
<path transform="translate(763,654)" d="m0 0 9 3 1 6 1 21 10-2 1-3 4-1 2 4h4l5-12 6 1 3 7v7l-3 5-5 1-5-3-2 2-4-1-3-2-4 3-5 1 4 6 8 7 9 3 15-1 10-5 7-8 2-5v-8l-6-7 1-4h7l4 8v11l-6 12-8 7-10 4-4 1h-12l-10-4-10-9-4-7-5 1-2 2h-4l1-4h-7l-6-4-1-1v-10l4-4 11-4-1-6-3-4z" fill="#120C0C"/>
<path transform="translate(921,641)" d="m0 0 3 2 4 31-1 14-4 6-9-3h-7l-3 5-7 1-5-3-2-3-14-1-8 1-7-1-8 4-2 3h-2l1-4 4-5 11-6-5-4-3-4 1-5 4-4 5 2-2 5h-2l2 3 8 3 5 4 4 1h8l4-7 6-1 5 4 4 4 13 1-1-18-3-11-2-4v-7z" fill="#160F0F"/>
<path transform="translate(399,438)" d="m0 0h19l3 2v39l-2 2h-22l-1-41z" fill="#FEFEFE"/>
<path transform="translate(145,640)" d="m0 0h6l1 4-3 4-4 11-1 8 8 5 4 5 2 5v7l-1 1h-41l-4 4h-3l1-4 5-12 7-6 9-5 8-1 2-13v-9z" fill="#110B0C"/>
<path transform="translate(259,643)" d="m0 0 4 2v14l4 21 1 3h14l1-5h4l2 5h31l-5-6-6-2-4 2-4-1v-6l6-4 7 1 5 4 7 9 6 1 7 1 1 1v9l-10-1-4-1-1 4v-4l-41 1v-3l-2-1-1 3-16 2-2 4-4 1 4-10-6-30-2-6v-6z" fill="#130C0C"/>
<path transform="translate(61,668)" d="m0 0 5 2 3 4 1 3v11l-6 12 2 5 7 4 9-1 6-3 6-8 2-6-7-2-4-4 1-9 4-6 5-1 5 5 3 10h3l5-5 2 3-3 5-8 6-6 10-4 5-10 5-3 1h-8l-7-5-2-5-5 2-8 4-8 2h-9l-11-4-6-4-8-9v-2l4 2 4 5 8 5 12 2 13-2 8-5 7-10 1-3v-7l-6-6 1-5z" fill="#130C0D"/>
<path transform="translate(544,811)" d="m0 0h27v4l-8 14 1 5 7 12 1 6h-26l-2-4z" fill="#110B0C"/>
<path transform="translate(379,642)" d="m0 0 5 1 2 24v19l-2 7-4 1-6-3-6-1 3 6h-3l-1-2-6 10-8 7-8 3h-8l-6-4-3-3-2-4-6 1-3-5 2-2h6v-3h2l3 9 6 5 2 1h8l8-5 4-5 4-8-6-1-5-4-1-4 3-9 4-4 5 1 4 5 3 8 11 1v-19l-4-14-1-6z" fill="#0E0A0B"/>
<path transform="translate(43,746)" d="m0 0h6l6 4 1 5h2l2-5 3-3 2-1h7l6 4 3 9v8l-3 7-5 4-7 1-5-3-5-8-1-11-5-5h-7l-4 4v10l3 6 7 1 5-3 2 1-3 5-7 3-7-2-5-6-1-4v-10l4-8z" fill="#140D0D"/>
<path transform="translate(206,642)" d="m0 0h5l1 1 2 24v20l-2 6-5 1v-2l-16-1-1-4-7 4h-9l-4 2-3 4h-2l2-8-2-18-3-15-2-3 1-8 3-2 4 1 1 19 3 17v3l16-1v-5h3l2 5 15 2v-17l-5-21 1-3z" fill="#140D0D"/>
<path transform="translate(769,811)" d="m0 0h30l-1 4-6 9-3 4v5l9 13 1 6h-30l2-6 9-15-3-6-8-13z" fill="#100B0B"/>
<path transform="translate(669,746)" d="m0 0h10l5 1 1 9v17l-1 9-4 5-4 2h-10l-3-2 1-4h9l5-2 1-5-5 2-7-1-5-6-2-7 1-8 5-8z" fill="#160E0E"/>
<path transform="translate(412,735)" d="m0 0 5 1v39l-1 2-6 1h-10l-5-5-2-8 1-10 3-5 3-3 3-1h9l-1-10z" fill="#1A1010"/>
<path transform="translate(892,735)" d="m0 0 5 1v40l-7 2h-10l-5-5-2-13 3-9 6-5h8l1-1v-9z" fill="#140D0D"/>
<path transform="translate(764,734)" d="m0 0 2 1v42l-2 1h-15l-5-6-1-3v-13l4-7 5-3h9v-11z" fill="#0C0809"/>
<path transform="translate(206,746)" d="m0 0 8 1 3 3 2 7v9l-3 7-4 4-9 1-3-1 1 12h-5l-1-15v-16l1-11z" fill="#180F0F"/>
<path transform="translate(443,281)" d="m0 0 16 1 20 1 3 1 1 3-11-1h-19l-3 3 1 5v6 3 7l-1 2h30v88h-2v-85l-28 1 1 7-2 4-5 1-1-1v-23l4-1v-2l-4-1v-8l4-2v-2h-4z" fill="#AC6750"/>
<path transform="translate(909,746)" d="m0 0h8l6 4 3 8v10l-3 6-5 4-7 1-6-4-3-5-1-11 4-10z" fill="#110B0C"/>
<path transform="translate(642,746)" d="m0 0h8l5 4 2 4 1 12-3 8-5 4-7 1-6-4-3-6-1-4v-7l4-8z" fill="#110B0B"/>
<path transform="translate(604,746)" d="m0 0h6l5 3 4 8v12l-4 6-4 3-7 1-6-4-3-6v-14l4-6z" fill="#120C0C"/>
<path transform="translate(612,811)" d="m0 0 4 1 1 3v13l2 1 2-5 3-8 1-4h6v35l-2 5h-16l-1-1-1-35z" fill="#150E0D"/>
<path transform="translate(240,811)" d="m0 0h11l1 4v13l5-1 1-15 1-1h11l1 5-1 1h-6l1 27 6 1v5h-13v-17h-6l-1 17-2 1h-8l-2-4 3-3h3v-26l-6-2-1-4z" fill="#110B0B"/>
<path transform="translate(849,811)" d="m0 0h31v5l-1 1h-24v11h17v6h-16l-1 11h25l-1 5h-26v2h-3l-1-2z" fill="#120C0C"/>
<path transform="translate(369,230)" d="m0 0h23l2 1 1 13-1 9h-25l-1-1v-21z" fill="#FEFEFE"/>
<path transform="translate(815,736)" d="m0 0h7l14 29 1-29 5 1v41l-2 1-5-3-6-12-8-18-1 32h-5z" fill="#110B0C"/>
<path transform="translate(924,817)" d="m0 0h9l6 4 3 6v7l-4 7-4 3h-11l-6-5-2-5v-7l4-7z" fill="#FEFEFE"/>
<path transform="translate(924,811)" d="m0 0h9l6 3 7 8 2 3v11l-7 9-7 4-8 1-8-3-7-8-2-5 1-9 4-8 5-4zm0 6-6 4-3 6v7l3 6 5 4h11l5-4 3-6v-7l-4-7-5-3z" fill="#110B0C"/>
<path transform="translate(853,746)" d="m0 0h9l5 3 2 6v22l-3 1h-14l-5-5v-9l4-4 7-3 5-1v-4h-10l-5 1-1-2 3-4z" fill="#130C0C"/>
<path transform="translate(302,811)" d="m0 0h5l1 18 5-8 2-9 5-1 1 16v22l-1 2h-5l-1-22-5 9-2 12-5 1-1-1v-38z" fill="#1A100F"/>
<path transform="translate(108,811)" d="m0 0 5 1v17l4-4 3-7 1-6h6v39l-3 1-3-2v-23l-5 9-2 4-1 10-5 1-1-1v-38z" fill="#170E0E"/>
<path transform="translate(10,811)" d="m0 0 5 1v16h9l1 3-2 3h-7l-1 17-1 1h-14v-24h9v-16z" fill="#120C0C"/>
<path transform="translate(710,746)" d="m0 0h7l6 5 1 2v10l-7 1h-9l-3-1 3 7 4 3h7l5-2-1 5-6 3-9-1-5-5-3-6v-9l4-8z" fill="#150D0D"/>
<path transform="translate(236,745)" d="m0 0 6 3 3 4 1 10-7 2h-11l1 6 3 2h9l6-3-1 5-4 4h-12l-6-5-2-5v-10l5-10 4-2 5 1z" fill="#19100F"/>
<path transform="translate(498,746)" d="m0 0 9 1 4 5 1 3v8h-19l3 8 4 2h6l5-4h2l-2 7-6 3-9-1-5-4-3-6v-12l4-6 3-3z" fill="#140D0D"/>
<path transform="translate(105,746)" d="m0 0 9 1 4 5 2 9-1 2-18 1 1 5 3 3 2 1 9-1 4-1-1 4-5 3-7 1-8-4-4-6v-13l4-6z" fill="#150E0D"/>
<path transform="translate(431,746)" d="m0 0 9 1 4 5 1 2v8l-7 2h-11l1 5 3 3 8 1 4-2h3l-2 5-3 2-8 1-8-4-3-5-1-3v-9l4-8z" fill="#140D0D"/>
<path transform="translate(360,746)" d="m0 0h7l5 3 3 6v8l-11 1-8-1 3 8 5 2 9-2 3-1-1 5-5 3h-11l-6-5-2-5v-12l3-5z" fill="#120C0C"/>
<path transform="translate(288,746)" d="m0 0 9 1 4 5 2 7v4l-14 1h-5l2 7 5 2 9-2 4-2-2 6-4 3h-11l-5-3-3-5-1-11 3-7 4-5z" fill="#170E0E"/>
<path transform="translate(276,811)" d="m0 0h5l1 19 5-8 3-11h5v39l-1 2-5-2v-21l-6 9-2 13-5-1z" fill="#0D090A"/>
<path transform="translate(780,746)" d="m0 0h7l5 3 3 8v5l-2 1h-17l2 7 5 3 12-2-1 4-5 3h-10l-7-6-1-3v-13l4-7z" fill="#130C0D"/>
<path transform="translate(7,736)" d="m0 0h23l1 3-1 2-17 1v10h14l2 1-1 4-4 1-12-1 1 15h16l2 5-1 1h-23l-1-41z" fill="#0F0A0B"/>
<path transform="translate(72,811)" d="m0 0h29v6h-24l1 27 23 1v5h-29z" fill="#090608"/>
<path transform="translate(146,736)" d="m0 0h11l6 5-1 3-7-2h-8l-3 3v5l5 3 10 4 4 5v7l-3 6-5 3h-10l-7-3-2-5h4l5 2h9l3-3v-7l-11-3-7-5-1-2v-7l3-6z" fill="#100B0B"/>
<path transform="translate(540,735)" d="m0 0h4l1 5v8l5-2h6l5 5 1 6v21h-5l-1-22-1-4-10 1v25l-4 1-1-1-1-42z" fill="#110B0C"/>
<path transform="translate(462,736)" d="m0 0h30v5l-3 1h-8l-1 36-4 1-2-1v-35l-12-2-1-4z" fill="#0F0A0B"/>
<path transform="translate(661,811)" d="m0 0h18l3 2-1 3h-7v28l7 1 1 4-2 1-17 1-3-3 1-4h6v-27h-7v-5z" fill="#110B0B"/>
<path transform="translate(52,811)" d="m0 0h4l-1 5-12 5h-2l7 7-1 5-6 4-1 2 10 3 6 3v5l-10-3-13-5-2-4 8-7h2l-6-7-3-2 1-4z" fill="#150D0D"/>
<path transform="translate(535,811)" d="m0 0h5l-1 5-14 5 2 4 5 3-1 4-7 5-1 2 9 3 7 3 1 4-3 1-20-8-3-2 1-3 4-1v-2l4-3-2-4-1-3-5-2 1-4z" fill="#120C0C"/>
<path transform="translate(711,811)" d="m0 0h3l-2 5-12 5h-2l8 8-2 4-6 4-1 2 9 3 6 3 2 4-2 1-21-8-2-2v-3l9-7-8-7-1-4 9-4z" fill="#150E0D"/>
<path transform="translate(307,747)" d="m0 0h4l1 17 1 9 9-2 1-24h5l1 4v17l-1 10h-18l-3-8-1-22z" fill="#1D1211"/>
<path transform="translate(578,746)" d="m0 0h6l5 4 1 5v23l-3 1-2-1-1-21-2-5-9 1v25h-5v-30l1-1z" fill="#0F0A0B"/>
<path transform="translate(568,90)" d="m0 0h3l6 7 8 7 10 10-2 1-25-1z" fill="#AD6953"/>
<path transform="translate(617,404)" d="m0 0 5 2 6 6v9l-4 4-6 2-9-5-1-1v-11z" fill="#FEFEFE"/>
<path transform="translate(167,747)" d="m0 0h5l1 21 1 4h7l2-1 1-24h5v31h-17l-4-5z" fill="#0C0809"/>
<path transform="translate(358,811)" d="m0 0h5l1 3v14h8l2 3-1 2-6 1-3-1v17l-5 1-1-1v-17l-9 1-1-5 1-1h9z" fill="#0F0A0B"/>
<path transform="translate(164,811)" d="m0 0 4 1 1 3v13h8l2 4-1 1h-7l-2-1v18l-4 1-2-1v-17h-9l-1-4 1-1 8-1 1-15z" fill="#1A100F"/>
<path transform="translate(382,94)" d="m0 0h1v23l-3 1h-22l6-7 14-14h2v-2z" fill="#AC664F"/>
<path transform="translate(494,811)" d="m0 0 4 1 1 15 8 1 1 4-5 2-3-1-1 2-1 17-5-1v-18h-10l1-5 8-1v-15z" fill="#110B0C"/>
<path transform="translate(442,811)" d="m0 0 5 1v15l9 1v5l-5 1-4-1-1 18-5 1v-19h-9l-1-4 1-1 8-1 1-15z" fill="#100A0B"/>
<path transform="translate(730,811)" d="m0 0 3 3v8l1 5 9 2-1 4h-9v18l-3 1-2-1v-18h-9l-1-4 1-1 8-1 1-15z" fill="#0F0A0B"/>
<path transform="translate(604,751)" d="m0 0 7 1 4 8-1 8-4 5-6 1-4-5-1-3v-9l3-5z" fill="#FEFEFE"/>
<path transform="translate(910,751)" d="m0 0h7l4 6v11l-4 5-5 1-5-5-1-3v-9z" fill="#FEFEFE"/>
<path transform="translate(225,641)" d="m0 0 4 1v41l-3 6-6 5-1-2 3-5 1-4v-16l-2-16-1-5z" fill="#120C0C"/>
<path transform="translate(643,751)" d="m0 0h6l3 4 1 4v9l-5 6h-5l-4-5-1-3v-8l3-6z" fill="#FEFEFE"/>
<path transform="translate(524,746)" d="m0 0h7l5 2 1 7-6-3h-6l-4 4v11l4 6 7-1 5-2-1 5-3 3h-10l-5-4-3-7v-10l3-7z" fill="#140D0D"/>
<path transform="translate(65,751)" d="m0 0h6l4 4 1 5v7l-3 5-2 2h-5l-3-3-2-5v-9z" fill="#FEFEFE"/>
<path transform="translate(937,641)" d="m0 0h5v40l-3 8-5 5h-2l4-10v-20l-2-13-1-6z" fill="#130C0D"/>
<path transform="translate(721,641)" d="m0 0h4l1 4h-2l2 34-3 9-6 6-2-1 4-8 1-5v-9l-2-18-1-2v-7z" fill="#140D0D"/>
<path transform="translate(205,751)" d="m0 0h5l3 3 1 3v10l-5 6-6 1-2-1-1-7v-10l2-4z" fill="#FEFEFE"/>
<path transform="translate(222,832)" d="m0 0h7l6 6-1 8-5 4-5 1-6-4-1-2v-7z" fill="#150E0D"/>
<path transform="translate(189,832)" d="m0 0h7l4 4 1 2v8l-4 4-5 2-6-4-2-4v-6z" fill="#120C0C"/>
<path transform="translate(753,751)" d="m0 0h6l2 2v18l-2 2h-8l-3-6v-11z" fill="#FEFEFE"/>
<path transform="translate(468,832)" d="m0 0h6l6 7-1 6-6 5-5 1-5-4-2-4 1-6 4-4z" fill="#1A100F"/>
<path transform="translate(332,832)" d="m0 0h8l4 5v9l-6 4-1 2-4-2-5-4-1-8z" fill="#19100F"/>
<path transform="translate(884,751)" d="m0 0h7l1 16-2 5-1 1h-7l-3-4-1-4v-7l3-5z" fill="#FEFEFE"/>
<path transform="translate(643,833)" d="m0 0h6l5 4 1 6-3 5-4 3h-5l-6-5-1-5 3-5z" fill="#19100F"/>
<path transform="translate(832,832)" d="m0 0h8l4 4v11l-8 5-8-6v-9z" fill="#110B0C"/>
<path transform="translate(893,833)" d="m0 0h6l4 4 1 2v6l-5 5-6 1-5-3-2-5 1-6 3-3z" fill="#1E1311"/>
<path transform="translate(593,812)" d="m0 0h10l4 6-1 6-4 4-6 1-5-2-3-4 1-7z" fill="#150E0E"/>
<path transform="translate(672,750)" d="m0 0 6 1 1 2v17l-3 2h-6l-3-3-1-2v-10l4-6z" fill="#FEFEFE"/>
<path transform="translate(595,833)" d="m0 0h6l5 6v7l-6 5-7-1-5-6 1-6z" fill="#150E0D"/>
<path transform="translate(404,751)" d="m0 0h6l1 1 1 15-1 5-2 1h-7l-3-4v-14z" fill="#FEFEFE"/>
<path transform="translate(641,812)" d="m0 0h10l4 6-1 6-4 4-6 1-5-3-2-2v-7z" fill="#110B0C"/>
<path transform="translate(894,811)" d="m0 0 6 1 4 5v7l-4 4-7 1-4-2-2-3v-7l4-5z" fill="#140D0D"/>
<path transform="translate(442,178)" d="m0 0h8l5 4 1 5-2 4-6 4-6-1-4-4-1-4 2-6z" fill="#AC664F"/>
<path transform="translate(87,734)" d="m0 0 4 1v42l-1 1h-5v-43z" fill="#180F0F"/>
<path transform="translate(206,811)" d="m0 0 5 1 1 2-1 36-4 2-1-1-1-11v-28z" fill="#170E0E"/>
<path transform="translate(576,178)" d="m0 0h8l4 4v8l-4 4h-8l-4-3-1-7 3-5z" fill="#AC664F"/>
<path transform="translate(400,811)" d="m0 0 5 1v39h-5l-1-2v-37z" fill="#2E1C18"/>
<path transform="translate(625,734)" d="m0 0 3 1 1 2v41h-5l-1-42z" fill="#1B1110"/>
<path transform="translate(250,747)" d="m0 0h15v3l-3 3h-5l-1 22-1 3-4 1-1-4z" fill="#251714"/>
<path transform="translate(804,811)" d="m0 0h5l1 1v39l-5 1z" fill="#0B0709"/>
<path transform="translate(578,811)" d="m0 0 5 1-1 39-4 1-1-1v-39z" fill="#0B0709"/>
<path transform="translate(932,746)" d="m0 0 7 2 7-1v5l-3 1h-7v25h-5l-1-30z" fill="#0E090A"/>
<path transform="translate(60,811)" d="m0 0h6v40l-2 1-3-2z" fill="#0C0809"/>
<path transform="translate(335,747)" d="m0 0h5l2 3 3-3 5 1-1 4-8 2-1 24h-5z" fill="#0F0A0B"/>
<path transform="translate(817,811)" d="m0 0 4 1v38l-5 1v-39z" fill="#0A0709"/>
<path transform="translate(783,836)" d="m0 0h2l8 11 3 5h-24l6-8z" fill="#FEFEFE"/>
<path transform="translate(553,816)" d="m0 0h11l-2 5-9 15-4 4v-23z" fill="#FEFEFE"/>
<path transform="translate(0,833)" d="m0 0h7l3 1v18h-10z" fill="#FEFEFE"/>
<path transform="translate(584,370)" d="m0 0 7 1 2 3v8l-3 3-9-1-2-3v-7l2-3z" fill="#AC664F"/>
<path transform="translate(289,827)" d="m0 0h1v23l2 2h-14l3-1v-10l4-8z" fill="#FEFEFE"/>
<path transform="translate(558,836)" d="m0 0 3 3 8 12v1h-21l4-7z" fill="#FEFEFE"/>
<path transform="translate(121,826)" d="m0 0h1v24l2 2h-15l3-2 2-13 5-7z" fill="#FCFBFA"/>
<path transform="translate(624,827)" d="m0 0 1 3 1 20 1 2h-11l1-11 3-9z" fill="#FEFEFE"/>
<path transform="translate(268,747)" d="m0 0h5l1 5v26l-2 1-4-2-1-29z" fill="#120B0C"/>
<path transform="translate(314,828)" d="m0 0h1v23l4 1h-16l3-2 2-12z" fill="#FEFEFE"/>
<path transform="translate(691,746)" d="m0 0 5 2v30l-5 1-1-32z" fill="#120B0C"/>
<path transform="translate(141,673)" d="m0 0 6 4 4 4v2l-3 1-19 1v-3l11-8z" fill="#FEFEFE"/>
<path transform="translate(378,396)" d="m0 0 5 1 2 6-2 6h-7l-4-4v-5l3-3z" fill="#AC664F"/>
<path transform="translate(479,509)" d="m0 0 5 1 3 6-1 5-1 1-14 1-2-2 1-11h4v10l7-1 1-3z" fill="#FEFEFE"/>
<path transform="translate(858,762)" d="m0 0h5l1 1v8l-6 3-5-1-1-2v-6z" fill="#FEFEFE"/>
<path transform="translate(491,529)" d="m0 0h5l1 1v11l-4 2-1-3 2-5-2-2-4-1-1 6-4 4-4-1v-3l3-1 2-6z" fill="#FEFEFE"/>
<path transform="translate(491,311)" d="m0 0h7l2 2v6l-3 3-5-1-4-2v-6z" fill="#AC664F"/>
<path transform="translate(362,750)" d="m0 0 5 1 3 3 1 5-3 1-4-1-8 1 1-6z" fill="#FEFEFE"/>
<path transform="translate(449,328)" d="m0 0 2 1v8l-2 7h-5l-1-1v-12z" fill="#AC664F"/>
<path transform="translate(462,294)" d="m0 0h6l3 3-1 5-3 3-7-1v-8z" fill="#AC664F"/>
<path transform="translate(782,750)" d="m0 0 5 1 3 4v4l-14 1v-5z" fill="#FEFEFE"/>
<path transform="translate(289,750)" d="m0 0 6 1 3 6-1 2-13 1-1-3 3-5z" fill="#FEFEFE"/>
<path transform="translate(234,749)" d="m0 0 5 3 2 6-1 1-13 1 1-6z" fill="#FEFEFE"/>
<path transform="translate(500,750)" d="m0 0 5 2 3 4v3l-15 1 1-5z" fill="#FEFEFE"/>
<path transform="translate(107,750)" d="m0 0 4 1 4 5v3h-15l1-4z" fill="#FEFEFE"/>
<path transform="translate(433,750)" d="m0 0 5 2 2 2-1 5-12 1-1-3 3-5z" fill="#FEFEFE"/>
<path transform="translate(711,750)" d="m0 0 5 1 3 3v5h-7l-7 1 2-6z" fill="#FEFEFE"/>
<path transform="translate(761,644)" d="m0 0 3 1 1 3-1 4-7-1-8 1-1-5 3-1 7-1z" fill="#1D1211"/>
<path transform="translate(645,836)" d="m0 0 4 1 2 3-1 5-3 2-5-1-2-4z" fill="#FEFEFE"/>
<path transform="translate(763,674)" d="m0 0h4l1 9-6 1-5-1 1-5z" fill="#FEFEFE"/>
<path transform="translate(550,445)" d="m0 0h6l2 2-1 7-1 1h-5l-3-4 1-5z" fill="#AC664F"/>
<path transform="translate(489,510)" d="m0 0h5l4 4-2 7-5 1-2-6z" fill="#F7F1EF"/>
<path transform="translate(789,815)" d="m0 0h3l-2 4-5 7-5-4-2-5 1-1z" fill="#FEFEFE"/>
<path transform="translate(596,837)" d="m0 0 5 1 2 2-1 5-3 2-5-1-2-2 1-4z" fill="#FEFEFE"/>
<path transform="translate(224,836)" d="m0 0 5 1 2 2-1 5-3 2-4-1-3-2 1-4z" fill="#FEFEFE"/>
<path transform="translate(405,463)" d="m0 0h7l1 1v8h-9v-8z" fill="#AC664F"/>
<path transform="translate(501,530)" d="m0 0h6v13h-5l-1-1-1-11z" fill="#FEFEFE"/>
<path transform="translate(135,671)" d="m0 0 2 1-10 10-4 2h-4l1-4 8-6z" fill="#FEFEFE"/>
<path transform="translate(407,447)" d="m0 0 6 1 1 4-1 4-6 1-2-1-1-7z" fill="#AC664F"/>
<path transform="translate(895,836)" d="m0 0 4 1 1 7-4 3-5-2-1-3 3-5z" fill="#FEFEFE"/>
<path transform="translate(469,836)" d="m0 0 5 1 1 1v5l-3 3-5-1-3-4z" fill="#FEFEFE"/>
<path transform="translate(473,106)" d="m0 0h2l15 27 5 10-3-1-10-18-9-17z" fill="#FEFEFE"/>
<path transform="translate(643,816)" d="m0 0h7l2 3v3l-8 2-4-2 2-5z" fill="#FEFEFE"/>
<path transform="translate(504,263)" d="m0 0h17l12 3-3 3-12-2-14-3z" fill="#FEFEFE"/>
<path transform="translate(192,836)" d="m0 0 5 2v6l-2 2-6-1-1-1v-5z" fill="#FEFEFE"/>
<path transform="translate(595,816)" d="m0 0h6l3 3v3l-8 2-4-2 1-4z" fill="#FEFEFE"/>
<path transform="translate(502,510)" d="m0 0 5 1v11h-5l-1-1v-10z" fill="#FEFEFE"/>
<path transform="translate(835,836)" d="m0 0 4 1 1 7-2 2-5-1-1-1v-6z" fill="#FEFEFE"/>
<path transform="translate(892,816)" d="m0 0h6l2 3v4l-7 1-3-3z" fill="#FEFEFE"/>
<path transform="translate(333,837)" d="m0 0h6l1 1v6l-2 2-5-1-1-1v-6z" fill="#FEFEFE"/>
<path transform="translate(325,694)" d="m0 0h2l1 6-3 3-5 1-3-5 2-2h6z" fill="#1E1311"/>
<path transform="translate(444,248)" d="m0 0 6 1 1 1v6l-4 1-4-2z" fill="#AC664F"/>
<path transform="translate(584,309)" d="m0 0 3 1 8 14 1 5-3-1-8-14z" fill="#F9F6F4"/>
<path transform="translate(631,282)" d="m0 0 9 2 5 2v2l2 1h-8l-6-2h-2z" fill="#543229"/>
<path transform="translate(443,260)" d="m0 0h8l-1 8h-6l-1-2z" fill="#AC664F"/>
<path transform="translate(444,270)" d="m0 0h6l1 4-1 4h-6l-1-1v-6z" fill="#AC664F"/>
<path transform="translate(470,530)" d="m0 0h3l1 13h-5v-12z" fill="#FEFEFE"/>
<path transform="translate(21,721)" d="m0 0h4l-2 6-5 5-3-1 2-5z" fill="#170F0E"/>
<path transform="translate(460,210)" d="m0 0h6l16 7-4 2-5-2-13-6z" fill="#FEFEFE"/>
<path transform="translate(897,681)" d="m0 0 4 1 1 7-2 2h-4v-9z" fill="#FEFEFE"/>
<path transform="translate(238,731)" d="m0 0 4 2-1 3-8 8 1-8z" fill="#1C1211"/>
<path transform="translate(150,658)" d="m0 0h5l1 5-4 2-3-1-1-4z" fill="#170F0E"/>
<path transform="translate(800,676)" d="m0 0 4 1v7h-4l-1-1v-6z" fill="#FEFEFE"/>
<path transform="translate(535,658)" d="m0 0h4l1 6-4 1-3-2 1-4z" fill="#100A0B"/>
<path transform="translate(287,698)" d="m0 0 5 1v5l-4 1-3-2 1-4z" fill="#140D0D"/>
<path transform="translate(182,660)" d="m0 0h5l1 5-1 1h-5l-1-5z" fill="#1D1211"/>
<path transform="translate(358,676)" d="m0 0h2l4 8-7-1-1-4z" fill="#FEFEFE"/>
<path transform="translate(631,276)" d="m0 0 8 1 8 2-1 2-9-1-6-3z" fill="#080608"/>
<path transform="translate(504,263)" d="m0 0h17l1 3-4 1-14-3z" fill="#F7F1EF"/>
<path transform="translate(637,697)" d="m0 0 3 2v5l-3 1-5-4 4-1z" fill="#281916"/>
<path transform="translate(92,677)" d="m0 0 4 1 1 5-1 1h-5l-1-3z" fill="#FEFEFE"/>
<path transform="translate(403,676)" d="m0 0h2l3 7-5 1-2-4z" fill="#FEFEFE"/>
<path transform="translate(421,660)" d="m0 0 6 1-2 5-5-1z" fill="#160E0E"/>
<path transform="translate(261,747)" d="m0 0 5 1-4 5h-5l2-4z" fill="#1B1110"/>
<path transform="translate(478,282)" d="m0 0 9 2 6 3v1h-7l-4-2v-2l-4-1z" fill="#FEFEFE"/>
<path transform="translate(691,736)" d="m0 0 5 1-1 5-3 1-2-3z" fill="#1C1210"/>
<path transform="translate(626,698)" d="m0 0 5 2-2 4-4 1-1-5z" fill="#211513"/>
<path transform="translate(278,698)" d="m0 0 3 2v4l-5 1-1-5z" fill="#1C1210"/>
<path transform="translate(486,244)" d="m0 0 14 1 1 3h-6l-9-3z" fill="#FEFEFE"/>
<path transform="translate(269,736)" d="m0 0 5 1-1 5h-4l-1-5z" fill="#120C0C"/>
<path transform="translate(415,119)" d="m0 0 5 4 7 8 1 2-4-2-6-6v-2l-3-1z" fill="#FEFEFE"/>
<path transform="translate(524,659)" d="m0 0h5l1 2-1 3h-5z" fill="#140D0D"/>
</svg>