<svg xmlns="http://www.w3.org/2000/svg" version="1.1" viewBox="0 0 896 896" width="224" height="224">
<path transform="translate(707,340)" d="m0 0h21l1 1v145l-5 1h-16l-1-1-15 1h-22l-13-3-8-6-5-5-4-5-5-15v-43l4-12 5-8 9-8 8-4 17-2 19 1 9 2v-38zm-28 57-12 4-6 7-2 7v35l4 8 5 5 10 2h8l10-2 6-4 3-7 1-4v-33l-3-9-6-5-11-4z" fill="#018BFC"/>
<path transform="translate(786,377)" d="m0 0h29l12 3 6 4 7 7 5 10 2 6 1 7v29l-1 1h-70l2 9 4 6 3 3 9 2h15l8-2 5-4 3-4 18 6 1 1-1 8-7 9-6 5-10 3-7 1h-25l-12-3-9-6-10-14-3-8v-49l4-10 7-9 7-6 9-4zm13 20-12 3-6 5-4 8v6l5 1h34l10-1-1-5-4-8-6-5-10-4z" fill="#018BFC"/>
<path transform="translate(553,377)" d="m0 0h29l13 3 8 6 8 10 4 11v47l-2 9-6 9-6 7-8 5-13 3h-24l-12-3-8-5-10-14-4-11-1-12v-22l1-11 4-12 9-11 8-6zm14 20-13 4-5 4-4 10-1 11v16l3 13 6 7 10 3h11l9-2 6-5 3-6v-39l-4-8-5-4-13-4z" fill="#018BFC"/>
<path transform="translate(447,340)" d="m0 0h14l15 4 13 8 8 9 5 11v3l-12 5-9 1-8-11-8-4-4-1h-16l-9 4-6 8-3 10-1 7v41l3 14 4 8 6 5 14 3 10-1 10-6 5-6 2-5 9 1 11 4 2 4-4 9-8 10-9 7-12 4-21 1-15-2-10-6-10-10-7-11-3-9-1-17 1-53 3-9 7-10 6-7 10-7 9-4z" fill="#018BFC"/>
<path transform="translate(200,377)" d="m0 0h17l12 2 10 5 8 7 6 10 2 6 1 7v37l-2 9-6 10-8 9-10 5-9 2h-29l-10-4-8-6-9-12-4-13-1-13v-16l2-14 4-11 9-10 8-6 8-3zm3 20-9 3-5 4-4 8v40l3 6 7 6 8 2h11l9-3 5-5 4-8 2-15-1-17-4-11-5-5-6-4-4-1z" fill="#142536"/>
<path transform="translate(350,377)" d="m0 0 21 1 1 1v76l-1 31h-20l-6-1-4 1h-32l-9-3-10-9-7-10-4-12v-74h22l1 70 4 11 7 4 8 2h9l11-3 5-4 2-4 1-7v-68z" fill="#142637"/>
<path transform="translate(43,340)" d="m0 0h24l2 1 5 12 8 16 12 25 5 9v2l4-4 15-29 12-25 3-6h24l-1 5-7 17-9 17-8 14-9 19-5 11-4 8-1 4-1 50-20 1-2-1-1-12v-37l-5-12-17-35-10-19-8-18-6-10z" fill="#142536"/>
<path transform="translate(0,300)" d="m0 0 83 1v9l-1 6h-66v64l-1 1h-15z" fill="none"/>
<path transform="translate(876,445)" d="m0 0h14v81l-1 1h-79l-1-15 1-1 66-1z" fill="none"/>
<path transform="translate(684,512)" d="m0 0 3 1v10h6l2 1-2-3v-6l3-3 2 2-1 11-5 2-6-1-3-6v-7z" fill="#132B40"/>
<path transform="translate(753,513)" d="m0 0 4 1-2 1-1 9 5 1h2l-1-10-2-2h5v14h-9l-2-1-1-5 1-7z" fill="#14293E"/>
<path transform="translate(553,513)" d="m0 0h12l2 2v8l-2 4h-6l5-4 1-8h-10v10l1 2-3-1z" fill="#132B42"/>
<path transform="translate(440,513)" d="m0 0h9l2 1v11l-2 2-4-1 3-3 1-8h-7l-3 1z" fill="#132B41"/>
<path transform="translate(695,512)" d="m0 0 3 2-1 11h-3l-1-10z" fill="#11385B"/>
<path transform="translate(469,513)" d="m0 0 2 1v7l-3 6h-3l1-6z" fill="#14293E"/>
<path transform="translate(511,513)" d="m0 0h10l2 5-1 9-3-3 1-4-2-5h-5l-2 1z" fill="#142739"/>
<path transform="translate(592,514)" d="m0 0h9v3l-7-1-1 7v2l6 1v1l-7-1-1-1v-10z" fill="#132A3F"/>
<path transform="translate(417,512)" d="m0 0h3v14l-3 1z" fill="#152535"/>
<path transform="translate(777,514)" d="m0 0 3 1v6l3 1 1 5-4-1-3-9z" fill="#132D45"/>
<path transform="translate(476,513)" d="m0 0 3 1-3 11-1 2h-2v-6l2-2z" fill="#14273A"/>
<path transform="translate(731,513)" d="m0 0h2l1 11 3 3h-6z" fill="#14273A"/>
<path transform="translate(620,513)" d="m0 0h3l-2 5-3 7h-2v-7h2z" fill="#132E47"/>
<path transform="translate(710,512)" d="m0 0 2 2-1 9 2 1-3 2-1-1v-12z" fill="#14283B"/>
<path transform="translate(716,512)" d="m0 0 3 1v8l-3 1-1-9z" fill="#14283B"/>
<path transform="translate(652,513)" d="m0 0h5l1 3-10 1v-3z" fill="#132C43"/>
<path transform="translate(656,522)" d="m0 0h2v4l-8 1-2-2z" fill="#132D45"/>
<path transform="translate(424,513)" d="m0 0 3 1v6l-1 2h-2z" fill="#12314D"/>
<path transform="translate(612,513)" d="m0 0h3l1 5-3-1z" fill="#132C44"/>
<path transform="translate(511,521)" d="m0 0 6 1v2l-6-1z" fill="#152535"/>
<path transform="translate(461,513)" d="m0 0h2v3h-2z" fill="#113656"/>
<path transform="translate(438,516)" d="m0 0h1v5h-1z" fill="#152535"/>
<path transform="translate(495,526)" d="m0 0 2 2h-2z" fill="#152535"/>
<path transform="translate(438,523)" d="m0 0" fill="#0B5898"/>
<path transform="translate(783,514)" d="m0 0 2 1z" fill="#152535"/>
<path transform="translate(439,525)" d="m0 0" fill="#152535"/>
<path transform="translate(715,522)" d="m0 0" fill="#152535"/>
<path transform="translate(511,518)" d="m0 0" fill="#152535"/>
<path transform="translate(601,517)" d="m0 0" fill="#152535"/>
</svg>
